<svg viewBox="1 -59 511.994 511" xmlns="http://www.w3.org/2000/svg"><path d="m85.566406 261.363281h-70.566406v-207.347656h373.667969v41.078125c0 4.140625 3.359375 7.5 7.5 7.5 4.144531 0 7.5-3.359375 7.5-7.5v-87.097656c0-4.140625-3.355469-7.5-7.5-7.5h-388.667969c-4.144531 0-7.5 3.359375-7.5 7.5v260.867187c0 4.144531 3.355469 7.5 7.5 7.5h78.066406c4.144532 0 7.5-3.355469 7.5-7.5 0-4.140625-3.355468-7.5-7.5-7.5zm303.101563-245.867187v23.519531h-373.667969v-23.519531zm0 0"/><path d="m504.5 117.667969h-388.671875c-4.144531 0-7.5 3.355469-7.5 7.5v260.863281c0 4.144531 3.355469 7.5 7.5 7.5h48.0625c4.140625 0 7.5-3.355469 7.5-7.5 0-4.140625-3.359375-7.5-7.5-7.5h-40.5625v-207.347656h373.671875v207.347656h-302.871094c-4.144531 0-7.5 3.359375-7.5 7.503906 0 4.140625 3.355469 7.5 7.5 7.5h310.371094c4.144531 0 7.5-3.359375 7.5-7.5v-260.867187c0-4.144531-3.355469-7.5-7.5-7.5zm-381.171875 38.515625v-23.515625h373.671875v23.515625zm0 0"/></svg>