<?xml version="1.0" encoding="UTF-8"?>
<svg width="220" height="220" version="1.1" viewBox="20.7 244.9 52.826 220" xmlns="http://www.w3.org/2000/svg"><g transform="translate(-2.0182 -1.0652)" fill="#0091e2"><path d="m-715.28 302.22c-0.6-0.5-6-4.6-17.6-4.6-3 0-6.1 0.3-9.1 0.8-2.2-15.3-14.9-22.7-15.4-23.1l-3.1-1.8-2 2.9c-2.5 3.9-4.4 8.3-5.5 12.8-2.1 8.7-0.8 16.9 3.6 23.9-5.3 3-13.9 3.7-15.7 3.8h-142c-3.7 0-6.7 3-6.7 6.7-0.2 12.4 1.9 24.8 6.2 36.5 4.9 12.8 12.2 22.3 21.6 28.1 10.6 6.5 27.9 10.2 47.4 10.2 8.8 0 17.6-0.8 26.3-2.4 12.1-2.2 23.7-6.4 34.4-12.5 8.8-5.1 16.7-11.6 23.4-19.2 11.3-12.7 18-26.9 22.9-39.5h2c12.3 0 19.9-4.9 24.1-9.1 2.8-2.6 4.9-5.8 6.4-9.4l0.9-2.6z"/><path d="m-904.62 313.89h19c0.9 0 1.7-0.7 1.7-1.7v-17c0-0.9-0.7-1.7-1.7-1.7h-19c-0.9 0-1.7 0.7-1.7 1.7v17c0.1 1 0.8 1.7 1.7 1.7zm26.2 0h19c0.9 0 1.7-0.7 1.7-1.7v-17c0-0.9-0.7-1.7-1.7-1.7h-19c-0.9 0-1.7 0.7-1.7 1.7v17c0.1 1 0.8 1.7 1.7 1.7m26.7 0h19c0.9 0 1.7-0.7 1.7-1.7v-17c0-0.9-0.7-1.7-1.7-1.7h-19c-0.9 0-1.7 0.7-1.7 1.7v17c0 1 0.7 1.7 1.7 1.7zm26.3 0h19c0.9 0 1.7-0.7 1.7-1.7v-17c0-0.9-0.7-1.7-1.7-1.7h-19c-0.9 0-1.7 0.7-1.7 1.7v17c0 1 0.8 1.7 1.7 1.7zm-53-24.3h19c0.9 0 1.7-0.8 1.7-1.7v-17c0-0.9-0.7-1.7-1.7-1.7h-19c-0.9 0-1.7 0.7-1.7 1.7v17c0.1 0.9 0.8 1.7 1.7 1.7m26.7 0h19c0.9 0 1.7-0.8 1.7-1.7v-17c0-0.9-0.7-1.7-1.7-1.7h-19c-0.9 0-1.7 0.7-1.7 1.7v17c0 0.9 0.7 1.7 1.7 1.7m26.3 0h19c0.9 0 1.7-0.8 1.7-1.7v-17c0-0.9-0.8-1.7-1.7-1.7h-19c-0.9 0-1.7 0.7-1.7 1.7v17c0 0.9 0.8 1.7 1.7 1.7m0-24.4h19c0.9 0 1.7-0.7 1.7-1.7v-17c0-0.9-0.8-1.7-1.7-1.7h-19c-0.9 0-1.7 0.7-1.7 1.7v17c0 0.9 0.8 1.7 1.7 1.7m26.5 48.7h19c0.9 0 1.7-0.7 1.7-1.7v-17c0-0.9-0.7-1.7-1.7-1.7h-19c-0.9 0-1.7 0.7-1.7 1.7v17c0.1 1 0.8 1.7 1.7 1.7"/><path d="m155.36 340.98c-0.6-0.5-6-4.6-17.6-4.6-3 0-6.1 0.3-9.1 0.8-2.2-15.3-14.9-22.7-15.4-23.1l-3.1-1.8-2 2.9c-2.5 3.9-4.4 8.3-5.5 12.8-2.1 8.7-0.8 16.9 3.6 23.9-5.3 3-13.9 3.7-15.7 3.8h-142c-3.7 0-6.7 3-6.7 6.7-0.2 12.4 1.9 24.8 6.2 36.5 4.9 12.8 12.2 22.3 21.6 28.1 10.6 6.5 27.9 10.2 47.4 10.2 8.8 0 17.6-0.8 26.3-2.4 12.1-2.2 23.7-6.4 34.4-12.5 8.8-5.1 16.7-11.6 23.4-19.2 11.3-12.7 18-26.9 22.9-39.5h2c12.3 0 19.9-4.9 24.1-9.1 2.8-2.6 4.9-5.8 6.4-9.4l0.9-2.6z"/><path d="m-37.217 352.26h19c0.9 0 1.7-0.7 1.7-1.7v-17c0-0.9-0.7-1.7-1.7-1.7h-19c-0.9 0-1.7 0.7-1.7 1.7v17c0.1 1 0.8 1.7 1.7 1.7zm26.2 0h19c0.9 0 1.7-0.7 1.7-1.7v-17c0-0.9-0.7-1.7-1.7-1.7h-19c-0.9 0-1.7 0.7-1.7 1.7v17c0.1 1 0.8 1.7 1.7 1.7m26.7 0h19c0.9 0 1.7-0.7 1.7-1.7v-17c0-0.9-0.7-1.7-1.7-1.7h-19c-0.9 0-1.7 0.7-1.7 1.7v17c0 1 0.7 1.7 1.7 1.7zm26.3 0h19c0.9 0 1.7-0.7 1.7-1.7v-17c0-0.9-0.7-1.7-1.7-1.7h-19c-0.9 0-1.7 0.7-1.7 1.7v17c0 1 0.8 1.7 1.7 1.7zm-53-24.3h19c0.9 0 1.7-0.8 1.7-1.7v-17c0-0.9-0.7-1.7-1.7-1.7h-19c-0.9 0-1.7 0.7-1.7 1.7v17c0.1 0.9 0.8 1.7 1.7 1.7m26.7 0h19c0.9 0 1.7-0.8 1.7-1.7v-17c0-0.9-0.7-1.7-1.7-1.7h-19c-0.9 0-1.7 0.7-1.7 1.7v17c0 0.9 0.7 1.7 1.7 1.7m26.3 0h19c0.9 0 1.7-0.8 1.7-1.7v-17c0-0.9-0.8-1.7-1.7-1.7h-19c-0.9 0-1.7 0.7-1.7 1.7v17c0 0.9 0.8 1.7 1.7 1.7m0-24.4h19c0.9 0 1.7-0.7 1.7-1.7v-17c0-0.9-0.8-1.7-1.7-1.7h-19c-0.9 0-1.7 0.7-1.7 1.7v17c0 0.9 0.8 1.7 1.7 1.7m26.5 48.7h19c0.9 0 1.7-0.7 1.7-1.7v-17c0-0.9-0.7-1.7-1.7-1.7h-19c-0.9 0-1.7 0.7-1.7 1.7v17c0.1 1 0.8 1.7 1.7 1.7"/></g></svg>
