<?xml version="1.0" encoding="UTF-8"?>
<!-- Svg Vector Icons : http://www.onlinewebfonts.com/icon -->
<svg enable-background="new 0 0 1000 1000" version="1.1" viewBox="0 0 1e3 1e3" xml:space="preserve" xmlns="http://www.w3.org/2000/svg">
<metadata> Svg Vector Icons : http://www.onlinewebfonts.com/icon </metadata>
<path d="m539.7 893.6c-10.4 8.9-16.1 22.2-16.1 35.8v27.2h-31.6s-0.2-7-0.2-19.5c0-10.4 2-20.6 5.7-30.4 8.8-22.7 10.4-47.2 10.4-51.3v-112.9h-7.7c-7.9 0-15.9-0.2-23.6-0.4v112.9c0 7.7-5.2 23.6-9.5 38.3-0.7-0.7-4.6-1.8-5.7-2.5-26.1-22.9-68.3-73.3-74.2-154.5-145.2-16.6-262.5-64.9-327.3-131.6v180.6c2 113.1 198.1 204.7 440.1 204.7s438.1-91.6 440.1-204.8v-180c-64.9 66.8-182.2 115.1-327.6 131.6-6.6 86.5-47.8 135.3-72.8 156.8z" style="fill:#6cac48"/>
<path d="m59.9 210.5c1-111.2 194.4-201 431.9-200.5s429.1 91 428.1 202.3c-1.1 111.2-194.4 201-431.9 200.5-236-0.5-427-90-428.1-200.5v-1.8z" style="fill:#6cac48"/>
<path d="m387.3 696.7c7.5-84.1 59.7-152.5 89.1-185.1v191.7c7.7 0.2 15.7 0.4 23.6 0.4h7.7v-209.8c15.2 14.3 99.3 83.5 105.5 203 187.1-23.2 325.3-102.8 326.7-197.8v-180.6c-80.4 83-243.2 137.5-439.9 137.5s-359.1-54.5-440.1-137.9v180.6c1.4 95 140 174.8 327.4 198z" style="fill:#6cac48"/>
</svg>
