<?xml version="1.0" encoding="UTF-8"?>
<svg class="svg-icon" style="fill:currentColor;height:1em;overflow:hidden;vertical-align:middle;width:1em" version="1.1" viewBox="0 0 1024 1024" xmlns="http://www.w3.org/2000/svg"><path d="m512 0c-282.33 0-512 229.67-512 512s229.67 512 512 512c282.28 0 512-229.67 512-512s-229.72-512-512-512zm0 48.811c255.79 0 463.19 207.36 463.19 463.19 0 255.79-207.36 463.19-463.19 463.19s-463.19-207.36-463.19-463.19 207.36-463.19 463.19-463.19zm-154.88 201.56a286.17 286.17 0 0 0-18.048 0.21333c-41.941 2.3893-67.115 22.059-74.027 62.805-4.9067 28.373-4.096 57.515-6.1013 86.059-0.55467 14.933-2.1333 29.739-4.9067 44.288-5.7173 25.984-16.939 34.048-43.349 35.413a113.07 113.07 0 0 0-10.411 1.792v62.421c48.043 2.3467 54.528 19.285 58.453 69.504 1.408 18.304-0.55467 36.608 0.64 54.912 0.768 17.323 3.1147 34.475 6.656 51.2 11.051 45.867 55.765 61.227 109.87 51.968v-54.741c-8.6613 0-16.341 0.21333-23.808 0-18.347-0.55467-25.216-5.12-26.965-22.827-2.3893-22.827-1.792-46.08-3.2-69.12-2.7307-42.709-7.4667-84.821-49.195-112 21.461-15.787 37.035-34.645 41.941-59.648 3.5413-17.493 5.7173-35.029 7.0827-52.779 1.1947-17.707-0.98133-35.84 0.59733-53.333 2.56-28.373 4.352-39.979 38.4-38.827 5.12 0 10.027-0.72533 15.744-1.152v-55.893c-6.8267 0-13.227-0.17067-19.371-0.256zm323.97 0.384a181.21 181.21 0 0 0-34.688 2.56v54.357c10.453 0 18.517 0 26.581 0.21333 13.995 0.17067 24.619 5.5467 26.027 21.077 1.3653 14.165 1.3227 28.544 2.7307 42.923 2.7733 28.544 4.3093 57.472 9.2587 85.632 4.352 23.211 20.267 40.533 40.149 54.741-34.859 23.424-45.099 56.875-46.848 94.507-0.98133 25.771-1.5787 51.755-2.944 77.739-1.1947 23.637-9.472 31.317-33.28 31.915-6.6987 0.17067-13.227 0.768-20.651 1.1947v55.68c13.952 0 26.752 0.81067 39.552 0 39.765-2.3467 63.787-21.632 71.68-60.245 3.328-21.248 5.2907-42.667 5.888-64.171 1.3653-19.669 1.1947-39.552 3.1573-59.051 2.944-30.507 16.939-43.093 47.445-45.099a41.472 41.472 0 0 0 8.4907-1.9627v-62.421c-5.12-0.59733-8.704-1.152-12.416-1.3653-22.869-0.98133-34.304-8.6613-39.979-30.293a219.56 219.56 0 0 1-6.4853-42.368c-1.5787-26.368-1.408-52.949-3.1573-79.36-3.4133-50.859-33.877-74.795-80.512-76.203zm-293.97 225.28a36.011 36.011 0 0 0-3.5413 71.851h2.3467a35.413 35.413 0 0 0 37.419-33.28v-1.9627a36.053 36.053 0 0 0-35.413-36.608zm124.2 0a34.475 34.475 0 0 0-35.584 33.28c0 1.152 0 2.1333 0.17067 3.328 0 21.461 14.592 35.243 36.651 35.243 21.632 0 35.243-14.165 35.243-36.395-0.21333-21.461-14.592-35.669-36.48-35.456zm126.42 0a36.736 36.736 0 0 0-37.376 35.627c0 20.053 16.128 36.224 36.224 36.224h0.384c18.133 3.1573 36.395-14.379 37.589-35.413 0.98133-19.499-16.725-36.437-36.821-36.437z" style="fill:#63db2a"/></svg>
