<?xml version="1.0" encoding="utf-8"?>
<!-- Generator: Adobe Illustrator 23.0.2, SVG Export Plug-In . SVG Version: 6.00 Build 0)  -->
<svg version="1.1" id="Layer_1" xmlns="http://www.w3.org/2000/svg" xmlns:xlink="http://www.w3.org/1999/xlink" x="0px" y="0px"
	 viewBox="0 0 16 16" style="enable-background:new 0 0 16 16;" xml:space="preserve">
<style type="text/css">
	.st0{fill-rule:evenodd;clip-rule:evenodd;fill:#F5F5F5;}
	.st1{fill:#F5F5F5;}
</style>
<path class="st0" d="M4,4C2.3,4,1,5.3,1,7v6h6V7C7,5.3,5.7,4,4,4z M4,3h8c2.2,0,4,1.8,4,4v6c0,0.6-0.4,1-1,1H1c-0.6,0-1-0.4-1-1V7
	C0,4.8,1.8,3,4,3z M6.6,4C7.5,4.8,8,5.9,8,7v6h7V7c0-1.7-1.3-3-3-3H6.6z"/>
<path class="st0" d="M11.8,8.5H9v-1h5c0.3,0,0.5,0.2,0.5,0.5v1c0,0.3-0.2,0.5-0.5,0.5h-1c-0.1,0-0.3-0.1-0.4-0.1L11.8,8.5z"/>
<path class="st1" d="M5,7c0,0.6-0.4,0-1,0S3,7.6,3,7c0-0.6,0.4-1,1-1S5,6.4,5,7z"/>
</svg>
