<?xml version="1.0" encoding="utf-8"?>
<!-- Generator: Adobe Illustrator 23.0.2, SVG Export Plug-In . SVG Version: 6.00 Build 0)  -->
<svg version="1.1" id="Layer_1" xmlns="http://www.w3.org/2000/svg" xmlns:xlink="http://www.w3.org/1999/xlink" x="0px" y="0px"
	 viewBox="0 0 1280 1280" style="enable-background:new 0 0 1280 1280;" xml:space="preserve">
<style type="text/css">
	.st0{fill:#EDEDEE;}
</style>
<g transform="translate(0.000000,1280.000000) scale(0.100000,-0.100000)">
	<path class="st0" d="M1545,12784c-85-19-167-51-243-95c-69-41-1089-1049-1157-1144c-101-141-140-263-140-440c0-169,36-293,125-427
		c29-43,705-726,2149-2170l2106-2108L2274,4288C918,2930,150,2155,127,2119C39,1982,6,1870,6,1700c-1-181,37-302,139-445
		c68-95,1088-1103,1157-1144c273-159,604-143,853,42c22,17,986,976,2143,2131l2102,2101l2103-2101c1156-1155,2120-2114,2142-2131
		c69-51,130-82,224-113c208-70,431-44,629,71c69,41,1089,1049,1157,1144c101,141,140,263,140,440c0,166-36,290-121,422
		c-25,39-746,767-2148,2171L8415,6400l2107,2108c2207,2208,2162,2161,2219,2303c75,187,77,392,4,572c-53,132-74,157-615,700
		c-289,291-552,548-585,572c-141,101-263,140-440,140c-166,0-289-35-420-120c-41-26-724-702-2172-2149L6400,8415l-2112,2111
		c-1454,1452-2132,2123-2173,2150c-64,41-149,78-230,101C1806,12799,1627,12803,1545,12784z"/>
</g>
</svg>