<?xml version="1.0" encoding="UTF-8" standalone="no"?>
<!-- Svg Vector Icons : http://www.onlinewebfonts.com/icon -->

<svg
   version="1.1"
   x="0px"
   y="0px"
   viewBox="0 0 1000 1000"
   enable-background="new 0 0 1000 1000"
   xml:space="preserve"
   id="svg67"
   sodipodi:docname="63fc527c459f18fee2ec92b618aceeba.svg"
   inkscape:version="1.1 (c4e8f9ed74, 2021-05-24)"
   xmlns:inkscape="http://www.inkscape.org/namespaces/inkscape"
   xmlns:sodipodi="http://sodipodi.sourceforge.net/DTD/sodipodi-0.dtd"
   xmlns="http://www.w3.org/2000/svg"
   xmlns:svg="http://www.w3.org/2000/svg"><defs
   id="defs71" /><sodipodi:namedview
   id="namedview69"
   pagecolor="#ffffff"
   bordercolor="#666666"
   borderopacity="1.0"
   inkscape:pageshadow="2"
   inkscape:pageopacity="0.0"
   inkscape:pagecheckerboard="0"
   showgrid="false"
   inkscape:zoom="0.82"
   inkscape:cx="454.87805"
   inkscape:cy="467.07317"
   inkscape:window-width="2560"
   inkscape:window-height="1022"
   inkscape:window-x="0"
   inkscape:window-y="30"
   inkscape:window-maximized="1"
   inkscape:current-layer="svg67" />
<metadata
   id="metadata57"> Svg Vector Icons : http://www.onlinewebfonts.com/icon </metadata>
<g
   id="g65"
   style="fill:#ffffff"><path
     d="M500.9,120.5c-210.1,0-380.4,170.3-380.4,380.4s170.3,380.4,380.4,380.4c210.1,0,380.4-170.3,380.4-380.4S711,120.5,500.9,120.5z M500.9,663.9c-90,0-163-73-163-163c0-90,73-163,163-163c90,0,163,73,163,163C663.9,591,591,663.9,500.9,663.9z"
     id="path59"
     style="fill:#ffffff" /><path
     d="M10,500c0,270.6,219.4,490,490,490c270.6,0,490-219.4,490-490c0-270.6-219.4-490-490-490C229.4,10,10,229.4,10,500z"
     id="path61"
     style="fill:#ffffff" /><path
     d="M173.3,500c0,180.4,146.3,326.7,326.7,326.7c180.4,0,326.7-146.3,326.7-326.7c0-180.4-146.3-326.7-326.7-326.7C319.6,173.3,173.3,319.6,173.3,500L173.3,500z"
     id="path63"
     style="fill:#ffffff" /></g>
</svg>
